{
	"asset":{
		"generator":"Khronos glTF Blender I/O v4.0.44",
		"version":"2.0"
	},
	"scene":5,
	"scenes":[
		{
			"extras":{
				"gridsize":30
			},
			"name":"1Map",
			"nodes":[
				0,
				1,
				2,
				3,
				4,
				5,
				6,
				7,
				8,
				9
			]
		},
		{
			"name":"archer",
			"nodes":[
				10
			]
		},
		{
			"name":"cleric",
			"nodes":[
				11
			]
		},
		{
			"name":"fighter",
			"nodes":[
				12
			]
		},
		{
			"name":"goblinArcher",
			"nodes":[
				13
			]
		},
		{
			"name":"goblinCleric",
			"nodes":[
				14
			]
		},
		{
			"name":"goblinFigther",
			"nodes":[
				15
			]
		},
		{
			"name":"goblinTank",
			"nodes":[
				16
			]
		},
		{
			"name":"tank",
			"nodes":[
				17
			]
		}
	],
	"nodes":[
		{
			"extras":{
				"Plane":true
			},
			"mesh":0,
			"name":"Plane"
		},
		{
			"extras":{
				"Plane":true
			},
			"mesh":1,
			"name":"Plane.001"
		},
		{
			"mesh":2,
			"name":"Cube",
			"translation":[
				10,
				0,
				0
			]
		},
		{
			"mesh":3,
			"name":"Cube.001"
		},
		{
			"mesh":4,
			"name":"Cube.002",
			"translation":[
				-10,
				0,
				0
			]
		},
		{
			"mesh":5,
			"name":"Cube.003",
			"translation":[
				5,
				0,
				-7
			]
		},
		{
			"mesh":6,
			"name":"Cube.004",
			"translation":[
				-7,
				0,
				5
			]
		},
		{
			"mesh":7,
			"name":"Cube.005",
			"translation":[
				-5,
				0,
				-7
			]
		},
		{
			"mesh":8,
			"name":"Cube.006",
			"translation":[
				7,
				0,
				5
			]
		},
		{
			"mesh":9,
			"name":"Cube.007",
			"translation":[
				0,
				0,
				9
			]
		},
		{
			"mesh":10,
			"name":"Cube.010",
			"rotation":[
				0,
				-0.7071068286895752,
				0,
				0.7071068286895752
			],
			"scale":[
				0.9156150817871094,
				1,
				1
			],
			"translation":[
				0,
				0.125,
				0
			]
		},
		{
			"mesh":11,
			"name":"Cube.008",
			"translation":[
				0,
				0.125,
				-0.1005120798945427
			]
		},
		{
			"mesh":12,
			"name":"Cube.009",
			"rotation":[
				0.7071068286895752,
				0,
				0,
				0.7071068286895752
			],
			"translation":[
				0.0004294120008125901,
				0.12795159220695496,
				0.005964759737253189
			]
		},
		{
			"mesh":13,
			"name":"Cube.013",
			"rotation":[
				0,
				-0.7071068286895752,
				0,
				0.7071068286895752
			],
			"translation":[
				0,
				0.125,
				0
			]
		},
		{
			"mesh":14,
			"name":"Cube.014",
			"translation":[
				0,
				0.125,
				0
			]
		},
		{
			"mesh":15,
			"name":"Cube.011",
			"rotation":[
				0.7071068286895752,
				0,
				0,
				0.7071068286895752
			],
			"translation":[
				0.0004294120008125901,
				0.12795159220695496,
				0
			]
		},
		{
			"mesh":16,
			"name":"Cube.015",
			"rotation":[
				-0.7071068286895752,
				0,
				0,
				0.7071068286895752
			],
			"translation":[
				0.0012951852986589074,
				0.14406229555606842,
				0
			]
		},
		{
			"mesh":17,
			"name":"Cube.012",
			"rotation":[
				-0.7071068286895752,
				0,
				0,
				0.7071068286895752
			],
			"translation":[
				0.0012951852986589074,
				0.14406229555606842,
				0
			]
		}
	],
	"materials":[
		{
			"doubleSided":true,
			"name":"Material.002",
			"pbrMetallicRoughness":{
				"baseColorFactor":[
					0,
					0,
					0,
					1
				],
				"metallicFactor":0,
				"roughnessFactor":0.5
			}
		},
		{
			"doubleSided":true,
			"name":"blanche",
			"pbrMetallicRoughness":{
				"baseColorFactor":[
					0.9490517377853394,
					0.9490517377853394,
					0.9490517377853394,
					1
				],
				"metallicFactor":0,
				"roughnessFactor":0.5
			}
		},
		{
			"doubleSided":true,
			"name":"rock",
			"pbrMetallicRoughness":{
				"baseColorTexture":{
					"index":0
				},
				"metallicFactor":0,
				"roughnessFactor":0.5
			}
		},
		{
			"doubleSided":true,
			"name":"player",
			"pbrMetallicRoughness":{
				"baseColorFactor":[
					0.02179366536438465,
					0.014900896698236465,
					0.8006537556648254,
					1
				],
				"metallicFactor":0,
				"roughnessFactor":0.5
			}
		},
		{
			"doubleSided":true,
			"name":"goblin",
			"pbrMetallicRoughness":{
				"baseColorFactor":[
					0.026643358170986176,
					0.8001965880393982,
					0.03968646377325058,
					1
				],
				"metallicFactor":0,
				"roughnessFactor":0.5
			}
		}
	],
	"meshes":[
		{
			"name":"Plane.001",
			"primitives":[
				{
					"attributes":{
						"POSITION":0,
						"NORMAL":1,
						"TEXCOORD_0":2
					},
					"indices":3,
					"material":0
				}
			]
		},
		{
			"name":"Plane.002",
			"primitives":[
				{
					"attributes":{
						"POSITION":4,
						"NORMAL":5,
						"TEXCOORD_0":6
					},
					"indices":7,
					"material":1
				}
			]
		},
		{
			"name":"Cube.001",
			"primitives":[
				{
					"attributes":{
						"POSITION":8,
						"NORMAL":9,
						"TEXCOORD_0":10
					},
					"indices":11,
					"material":2
				}
			]
		},
		{
			"name":"Cube.002",
			"primitives":[
				{
					"attributes":{
						"POSITION":12,
						"NORMAL":13,
						"TEXCOORD_0":14
					},
					"indices":11,
					"material":2
				}
			]
		},
		{
			"name":"Cube.003",
			"primitives":[
				{
					"attributes":{
						"POSITION":15,
						"NORMAL":16,
						"TEXCOORD_0":17
					},
					"indices":11,
					"material":2
				}
			]
		},
		{
			"name":"Cube.004",
			"primitives":[
				{
					"attributes":{
						"POSITION":18,
						"NORMAL":19,
						"TEXCOORD_0":20
					},
					"indices":11,
					"material":2
				}
			]
		},
		{
			"name":"Cube.005",
			"primitives":[
				{
					"attributes":{
						"POSITION":21,
						"NORMAL":22,
						"TEXCOORD_0":23
					},
					"indices":11,
					"material":2
				}
			]
		},
		{
			"name":"Cube.006",
			"primitives":[
				{
					"attributes":{
						"POSITION":24,
						"NORMAL":25,
						"TEXCOORD_0":26
					},
					"indices":11,
					"material":2
				}
			]
		},
		{
			"name":"Cube.007",
			"primitives":[
				{
					"attributes":{
						"POSITION":27,
						"NORMAL":28,
						"TEXCOORD_0":29
					},
					"indices":11,
					"material":2
				}
			]
		},
		{
			"name":"Cube.008",
			"primitives":[
				{
					"attributes":{
						"POSITION":30,
						"NORMAL":31,
						"TEXCOORD_0":32
					},
					"indices":11,
					"material":2
				}
			]
		},
		{
			"name":"Cube",
			"primitives":[
				{
					"attributes":{
						"POSITION":33,
						"NORMAL":34,
						"TEXCOORD_0":35
					},
					"indices":36,
					"material":3
				}
			]
		},
		{
			"name":"Cube.010",
			"primitives":[
				{
					"attributes":{
						"POSITION":37,
						"NORMAL":38,
						"TEXCOORD_0":39
					},
					"indices":40,
					"material":3
				}
			]
		},
		{
			"name":"Cube.014",
			"primitives":[
				{
					"attributes":{
						"POSITION":41,
						"NORMAL":42,
						"TEXCOORD_0":43
					},
					"indices":44,
					"material":3
				}
			]
		},
		{
			"name":"Cube.012",
			"primitives":[
				{
					"attributes":{
						"POSITION":45,
						"NORMAL":46,
						"TEXCOORD_0":47
					},
					"indices":36,
					"material":4
				}
			]
		},
		{
			"name":"Cube.020",
			"primitives":[
				{
					"attributes":{
						"POSITION":48,
						"NORMAL":49,
						"TEXCOORD_0":50
					},
					"indices":40,
					"material":4
				}
			]
		},
		{
			"name":"Cube.011",
			"primitives":[
				{
					"attributes":{
						"POSITION":51,
						"NORMAL":52,
						"TEXCOORD_0":53
					},
					"indices":44,
					"material":4
				}
			]
		},
		{
			"name":"Cube.021",
			"primitives":[
				{
					"attributes":{
						"POSITION":54,
						"NORMAL":55,
						"TEXCOORD_0":56
					},
					"indices":57,
					"material":4
				}
			]
		},
		{
			"name":"Cube.013",
			"primitives":[
				{
					"attributes":{
						"POSITION":58,
						"NORMAL":59,
						"TEXCOORD_0":60
					},
					"indices":57,
					"material":3
				}
			]
		}
	],
	"textures":[
		{
			"sampler":0,
			"source":0
		}
	],
	"images":[
		{
			"mimeType":"image/png",
			"name":"rock",
			"uri":"rock.png"
		}
	],
	"accessors":[
		{
			"bufferView":0,
			"componentType":5126,
			"count":959,
			"max":[
				15,
				0,
				15
			],
			"min":[
				-15,
				0,
				-15
			],
			"type":"VEC3"
		},
		{
			"bufferView":1,
			"componentType":5126,
			"count":959,
			"type":"VEC3"
		},
		{
			"bufferView":2,
			"componentType":5126,
			"count":959,
			"type":"VEC2"
		},
		{
			"bufferView":3,
			"componentType":5123,
			"count":2700,
			"type":"SCALAR"
		},
		{
			"bufferView":4,
			"componentType":5126,
			"count":959,
			"max":[
				15,
				0,
				15
			],
			"min":[
				-15,
				0,
				-15
			],
			"type":"VEC3"
		},
		{
			"bufferView":5,
			"componentType":5126,
			"count":959,
			"type":"VEC3"
		},
		{
			"bufferView":6,
			"componentType":5126,
			"count":959,
			"type":"VEC2"
		},
		{
			"bufferView":7,
			"componentType":5123,
			"count":2700,
			"type":"SCALAR"
		},
		{
			"bufferView":8,
			"componentType":5126,
			"count":24,
			"max":[
				1,
				1,
				1
			],
			"min":[
				-1,
				-1,
				-1
			],
			"type":"VEC3"
		},
		{
			"bufferView":9,
			"componentType":5126,
			"count":24,
			"type":"VEC3"
		},
		{
			"bufferView":10,
			"componentType":5126,
			"count":24,
			"type":"VEC2"
		},
		{
			"bufferView":11,
			"componentType":5123,
			"count":36,
			"type":"SCALAR"
		},
		{
			"bufferView":12,
			"componentType":5126,
			"count":24,
			"max":[
				1,
				1,
				1
			],
			"min":[
				-1,
				-1,
				-1
			],
			"type":"VEC3"
		},
		{
			"bufferView":13,
			"componentType":5126,
			"count":24,
			"type":"VEC3"
		},
		{
			"bufferView":14,
			"componentType":5126,
			"count":24,
			"type":"VEC2"
		},
		{
			"bufferView":15,
			"componentType":5126,
			"count":24,
			"max":[
				1,
				1,
				1
			],
			"min":[
				-1,
				-1,
				-1
			],
			"type":"VEC3"
		},
		{
			"bufferView":16,
			"componentType":5126,
			"count":24,
			"type":"VEC3"
		},
		{
			"bufferView":17,
			"componentType":5126,
			"count":24,
			"type":"VEC2"
		},
		{
			"bufferView":18,
			"componentType":5126,
			"count":24,
			"max":[
				1,
				1,
				1
			],
			"min":[
				-1,
				-1,
				-1
			],
			"type":"VEC3"
		},
		{
			"bufferView":19,
			"componentType":5126,
			"count":24,
			"type":"VEC3"
		},
		{
			"bufferView":20,
			"componentType":5126,
			"count":24,
			"type":"VEC2"
		},
		{
			"bufferView":21,
			"componentType":5126,
			"count":24,
			"max":[
				1,
				1,
				1
			],
			"min":[
				-1,
				-1,
				-1
			],
			"type":"VEC3"
		},
		{
			"bufferView":22,
			"componentType":5126,
			"count":24,
			"type":"VEC3"
		},
		{
			"bufferView":23,
			"componentType":5126,
			"count":24,
			"type":"VEC2"
		},
		{
			"bufferView":24,
			"componentType":5126,
			"count":24,
			"max":[
				1,
				1,
				1
			],
			"min":[
				-1,
				-1,
				-1
			],
			"type":"VEC3"
		},
		{
			"bufferView":25,
			"componentType":5126,
			"count":24,
			"type":"VEC3"
		},
		{
			"bufferView":26,
			"componentType":5126,
			"count":24,
			"type":"VEC2"
		},
		{
			"bufferView":27,
			"componentType":5126,
			"count":24,
			"max":[
				1,
				1,
				1
			],
			"min":[
				-1,
				-1,
				-1
			],
			"type":"VEC3"
		},
		{
			"bufferView":28,
			"componentType":5126,
			"count":24,
			"type":"VEC3"
		},
		{
			"bufferView":29,
			"componentType":5126,
			"count":24,
			"type":"VEC2"
		},
		{
			"bufferView":30,
			"componentType":5126,
			"count":24,
			"max":[
				1,
				1,
				1
			],
			"min":[
				-1,
				-1,
				-1
			],
			"type":"VEC3"
		},
		{
			"bufferView":31,
			"componentType":5126,
			"count":24,
			"type":"VEC3"
		},
		{
			"bufferView":32,
			"componentType":5126,
			"count":24,
			"type":"VEC2"
		},
		{
			"bufferView":33,
			"componentType":5126,
			"count":80,
			"max":[
				0.5381470918655396,
				0.125,
				0.22883504629135132
			],
			"min":[
				-0.5678601264953613,
				-0.125,
				-0.20632493495941162
			],
			"type":"VEC3"
		},
		{
			"bufferView":34,
			"componentType":5126,
			"count":80,
			"type":"VEC3"
		},
		{
			"bufferView":35,
			"componentType":5126,
			"count":80,
			"type":"VEC2"
		},
		{
			"bufferView":36,
			"componentType":5123,
			"count":156,
			"type":"SCALAR"
		},
		{
			"bufferView":37,
			"componentType":5126,
			"count":72,
			"max":[
				0.32578903436660767,
				0.125,
				0.673279881477356
			],
			"min":[
				-0.34885698556900024,
				-0.125,
				-0.33638620376586914
			],
			"type":"VEC3"
		},
		{
			"bufferView":38,
			"componentType":5126,
			"count":72,
			"type":"VEC3"
		},
		{
			"bufferView":39,
			"componentType":5126,
			"count":72,
			"type":"VEC2"
		},
		{
			"bufferView":40,
			"componentType":5123,
			"count":132,
			"type":"SCALAR"
		},
		{
			"bufferView":41,
			"componentType":5126,
			"count":68,
			"max":[
				0.2910296320915222,
				0.36055314540863037,
				0.14145904779434204
			],
			"min":[
				-0.2918884754180908,
				-0.5342859029769897,
				-0.14145904779434204
			],
			"type":"VEC3"
		},
		{
			"bufferView":42,
			"componentType":5126,
			"count":68,
			"type":"VEC3"
		},
		{
			"bufferView":43,
			"componentType":5126,
			"count":68,
			"type":"VEC2"
		},
		{
			"bufferView":44,
			"componentType":5123,
			"count":126,
			"type":"SCALAR"
		},
		{
			"bufferView":45,
			"componentType":5126,
			"count":80,
			"max":[
				0.8066813945770264,
				0.125,
				0.22883504629135132
			],
			"min":[
				-0.5678601264953613,
				-0.125,
				-0.20632493495941162
			],
			"type":"VEC3"
		},
		{
			"bufferView":46,
			"componentType":5126,
			"count":80,
			"type":"VEC3"
		},
		{
			"bufferView":47,
			"componentType":5126,
			"count":80,
			"type":"VEC2"
		},
		{
			"bufferView":48,
			"componentType":5126,
			"count":72,
			"max":[
				0.32578903436660767,
				0.125,
				0.673279881477356
			],
			"min":[
				-0.34885698556900024,
				-0.125,
				-0.33638620376586914
			],
			"type":"VEC3"
		},
		{
			"bufferView":49,
			"componentType":5126,
			"count":72,
			"type":"VEC3"
		},
		{
			"bufferView":50,
			"componentType":5126,
			"count":72,
			"type":"VEC2"
		},
		{
			"bufferView":51,
			"componentType":5126,
			"count":68,
			"max":[
				0.2910296320915222,
				0.36055314540863037,
				0.14145904779434204
			],
			"min":[
				-0.2918884754180908,
				-0.5342859029769897,
				-0.14145904779434204
			],
			"type":"VEC3"
		},
		{
			"bufferView":52,
			"componentType":5126,
			"count":68,
			"type":"VEC3"
		},
		{
			"bufferView":53,
			"componentType":5126,
			"count":68,
			"type":"VEC2"
		},
		{
			"bufferView":54,
			"componentType":5126,
			"count":80,
			"max":[
				0.3954833447933197,
				0.3002399206161499,
				0.14145904779434204
			],
			"min":[
				-0.39871376752853394,
				-0.42051780223846436,
				-0.14145904779434204
			],
			"type":"VEC3"
		},
		{
			"bufferView":55,
			"componentType":5126,
			"count":80,
			"type":"VEC3"
		},
		{
			"bufferView":56,
			"componentType":5126,
			"count":80,
			"type":"VEC2"
		},
		{
			"bufferView":57,
			"componentType":5123,
			"count":132,
			"type":"SCALAR"
		},
		{
			"bufferView":58,
			"componentType":5126,
			"count":80,
			"max":[
				0.3954833447933197,
				0.3002399206161499,
				0.14145904779434204
			],
			"min":[
				-0.39871376752853394,
				-0.42051780223846436,
				-0.14145904779434204
			],
			"type":"VEC3"
		},
		{
			"bufferView":59,
			"componentType":5126,
			"count":80,
			"type":"VEC3"
		},
		{
			"bufferView":60,
			"componentType":5126,
			"count":80,
			"type":"VEC2"
		}
	],
	"bufferViews":[
		{
			"buffer":0,
			"byteLength":11508,
			"byteOffset":0,
			"target":34962
		},
		{
			"buffer":0,
			"byteLength":11508,
			"byteOffset":11508,
			"target":34962
		},
		{
			"buffer":0,
			"byteLength":7672,
			"byteOffset":23016,
			"target":34962
		},
		{
			"buffer":0,
			"byteLength":5400,
			"byteOffset":30688,
			"target":34963
		},
		{
			"buffer":0,
			"byteLength":11508,
			"byteOffset":36088,
			"target":34962
		},
		{
			"buffer":0,
			"byteLength":11508,
			"byteOffset":47596,
			"target":34962
		},
		{
			"buffer":0,
			"byteLength":7672,
			"byteOffset":59104,
			"target":34962
		},
		{
			"buffer":0,
			"byteLength":5400,
			"byteOffset":66776,
			"target":34963
		},
		{
			"buffer":0,
			"byteLength":288,
			"byteOffset":72176,
			"target":34962
		},
		{
			"buffer":0,
			"byteLength":288,
			"byteOffset":72464,
			"target":34962
		},
		{
			"buffer":0,
			"byteLength":192,
			"byteOffset":72752,
			"target":34962
		},
		{
			"buffer":0,
			"byteLength":72,
			"byteOffset":72944,
			"target":34963
		},
		{
			"buffer":0,
			"byteLength":288,
			"byteOffset":73016,
			"target":34962
		},
		{
			"buffer":0,
			"byteLength":288,
			"byteOffset":73304,
			"target":34962
		},
		{
			"buffer":0,
			"byteLength":192,
			"byteOffset":73592,
			"target":34962
		},
		{
			"buffer":0,
			"byteLength":288,
			"byteOffset":73784,
			"target":34962
		},
		{
			"buffer":0,
			"byteLength":288,
			"byteOffset":74072,
			"target":34962
		},
		{
			"buffer":0,
			"byteLength":192,
			"byteOffset":74360,
			"target":34962
		},
		{
			"buffer":0,
			"byteLength":288,
			"byteOffset":74552,
			"target":34962
		},
		{
			"buffer":0,
			"byteLength":288,
			"byteOffset":74840,
			"target":34962
		},
		{
			"buffer":0,
			"byteLength":192,
			"byteOffset":75128,
			"target":34962
		},
		{
			"buffer":0,
			"byteLength":288,
			"byteOffset":75320,
			"target":34962
		},
		{
			"buffer":0,
			"byteLength":288,
			"byteOffset":75608,
			"target":34962
		},
		{
			"buffer":0,
			"byteLength":192,
			"byteOffset":75896,
			"target":34962
		},
		{
			"buffer":0,
			"byteLength":288,
			"byteOffset":76088,
			"target":34962
		},
		{
			"buffer":0,
			"byteLength":288,
			"byteOffset":76376,
			"target":34962
		},
		{
			"buffer":0,
			"byteLength":192,
			"byteOffset":76664,
			"target":34962
		},
		{
			"buffer":0,
			"byteLength":288,
			"byteOffset":76856,
			"target":34962
		},
		{
			"buffer":0,
			"byteLength":288,
			"byteOffset":77144,
			"target":34962
		},
		{
			"buffer":0,
			"byteLength":192,
			"byteOffset":77432,
			"target":34962
		},
		{
			"buffer":0,
			"byteLength":288,
			"byteOffset":77624,
			"target":34962
		},
		{
			"buffer":0,
			"byteLength":288,
			"byteOffset":77912,
			"target":34962
		},
		{
			"buffer":0,
			"byteLength":192,
			"byteOffset":78200,
			"target":34962
		},
		{
			"buffer":0,
			"byteLength":960,
			"byteOffset":78392,
			"target":34962
		},
		{
			"buffer":0,
			"byteLength":960,
			"byteOffset":79352,
			"target":34962
		},
		{
			"buffer":0,
			"byteLength":640,
			"byteOffset":80312,
			"target":34962
		},
		{
			"buffer":0,
			"byteLength":312,
			"byteOffset":80952,
			"target":34963
		},
		{
			"buffer":0,
			"byteLength":864,
			"byteOffset":81264,
			"target":34962
		},
		{
			"buffer":0,
			"byteLength":864,
			"byteOffset":82128,
			"target":34962
		},
		{
			"buffer":0,
			"byteLength":576,
			"byteOffset":82992,
			"target":34962
		},
		{
			"buffer":0,
			"byteLength":264,
			"byteOffset":83568,
			"target":34963
		},
		{
			"buffer":0,
			"byteLength":816,
			"byteOffset":83832,
			"target":34962
		},
		{
			"buffer":0,
			"byteLength":816,
			"byteOffset":84648,
			"target":34962
		},
		{
			"buffer":0,
			"byteLength":544,
			"byteOffset":85464,
			"target":34962
		},
		{
			"buffer":0,
			"byteLength":252,
			"byteOffset":86008,
			"target":34963
		},
		{
			"buffer":0,
			"byteLength":960,
			"byteOffset":86260,
			"target":34962
		},
		{
			"buffer":0,
			"byteLength":960,
			"byteOffset":87220,
			"target":34962
		},
		{
			"buffer":0,
			"byteLength":640,
			"byteOffset":88180,
			"target":34962
		},
		{
			"buffer":0,
			"byteLength":864,
			"byteOffset":88820,
			"target":34962
		},
		{
			"buffer":0,
			"byteLength":864,
			"byteOffset":89684,
			"target":34962
		},
		{
			"buffer":0,
			"byteLength":576,
			"byteOffset":90548,
			"target":34962
		},
		{
			"buffer":0,
			"byteLength":816,
			"byteOffset":91124,
			"target":34962
		},
		{
			"buffer":0,
			"byteLength":816,
			"byteOffset":91940,
			"target":34962
		},
		{
			"buffer":0,
			"byteLength":544,
			"byteOffset":92756,
			"target":34962
		},
		{
			"buffer":0,
			"byteLength":960,
			"byteOffset":93300,
			"target":34962
		},
		{
			"buffer":0,
			"byteLength":960,
			"byteOffset":94260,
			"target":34962
		},
		{
			"buffer":0,
			"byteLength":640,
			"byteOffset":95220,
			"target":34962
		},
		{
			"buffer":0,
			"byteLength":264,
			"byteOffset":95860,
			"target":34963
		},
		{
			"buffer":0,
			"byteLength":960,
			"byteOffset":96124,
			"target":34962
		},
		{
			"buffer":0,
			"byteLength":960,
			"byteOffset":97084,
			"target":34962
		},
		{
			"buffer":0,
			"byteLength":640,
			"byteOffset":98044,
			"target":34962
		}
	],
	"samplers":[
		{
			"magFilter":9729,
			"minFilter":9987
		}
	],
	"buffers":[
		{
			"byteLength":98684,
			"uri":"assets.bin"
		}
	]
}
